<?xml version="1.0" standalone="no"?>
<!DOCTYPE svg PUBLIC "-//W3C//DTD SVG 20010904//EN"
 "http://www.w3.org/TR/2001/REC-SVG-20010904/DTD/svg10.dtd">
<svg version="1.0" xmlns="http://www.w3.org/2000/svg"
 width="512.000000pt" height="512.000000pt" viewBox="0 0 512.000000 512.000000"
 preserveAspectRatio="xMidYMid meet">
<metadata>
Created by potrace 1.11, written by Peter Selinger 2001-2013
</metadata>
<g transform="translate(0.000000,512.000000) scale(0.100000,-0.100000)"
fill="#000000" stroke="none">
<path d="M2370 4689 c-43 -15 -68 -19 -112 -14 -55 7 -169 -11 -240 -37 -14
-5 -65 -42 -112 -82 -63 -53 -99 -76 -134 -85 -26 -6 -62 -20 -78 -30 -33 -20
-102 -127 -111 -172 -3 -16 -24 -44 -52 -67 -25 -21 -56 -59 -69 -84 -25 -51
-62 -187 -62 -228 0 -15 -9 -35 -21 -46 -59 -53 -109 -236 -129 -473 -17 -192
9 -465 63 -671 61 -229 182 -486 313 -660 47 -63 92 -127 100 -141 40 -79 186
-498 221 -639 l9 -35 604 0 604 0 17 70 c55 225 206 614 263 682 195 231 335
551 403 918 27 151 25 554 -4 680 -12 50 -24 112 -28 139 -4 28 -16 73 -27
100 -11 28 -29 85 -39 126 -23 89 -56 160 -104 223 -19 25 -44 72 -56 104 -29
78 -120 169 -213 212 -37 17 -70 31 -74 31 -4 0 -19 16 -35 35 -21 26 -42 38
-85 50 -31 9 -84 25 -118 35 -33 11 -76 20 -96 20 -20 0 -66 11 -102 25 -105
39 -246 34 -289 -11 l-22 -23 -31 30 c-40 39 -84 44 -154 18z m-670 -349 c-7
-12 -10 -83 -10 -184 l2 -163 -29 -41 c-15 -23 -35 -40 -43 -39 -12 2 -14 -10
-12 -66 3 -43 -1 -73 -8 -82 -14 -17 -6 -45 13 -45 19 0 47 54 47 92 0 19 7
43 15 54 13 17 14 2 15 -143 0 -154 -1 -164 -23 -197 l-24 -34 -45 25 c-50 28
-78 67 -78 110 0 30 -34 176 -45 193 -7 12 -32 13 -38 3 -6 -9 18 -129 33
-168 12 -31 13 -55 3 -55 -5 0 -32 22 -61 48 l-53 47 17 50 c9 28 31 66 49 85
24 26 35 48 40 85 13 94 60 206 96 228 12 8 23 5 44 -11 15 -12 36 -22 46 -22
25 0 25 32 -1 55 -11 10 -20 26 -20 35 0 25 64 160 76 160 2 0 0 -9 -6 -20z
m37 -72 c-3 -8 -6 -5 -6 6 -1 11 2 17 5 13 3 -3 4 -12 1 -19z m-348 -646 c31
-27 80 -65 109 -85 l53 -36 -1 -647 c0 -356 -2 -650 -5 -652 -6 -7 -130 254
-160 338 -37 106 -81 286 -99 411 -21 139 -21 417 -1 535 18 104 37 184 44
184 2 0 30 -22 60 -48z m318 -154 c-3 -8 -6 -5 -6 6 -1 11 2 17 5 13 3 -3 4
-12 1 -19z m440 -364 c65 -31 123 -85 155 -146 20 -37 23 -58 23 -143 0 -92
-2 -104 -29 -153 -34 -61 -86 -111 -148 -144 -61 -32 -201 -32 -270 -1 -110
50 -188 171 -188 291 0 103 33 176 111 246 97 87 227 106 346 50z m1036 21
c303 -79 334 -494 46 -612 -31 -13 -69 -18 -129 -18 -96 1 -140 18 -211 82
-170 153 -122 440 87 529 84 36 126 40 207 19z"/>
<path d="M1765 1665 c2 -16 9 -66 14 -110 6 -44 17 -133 25 -197 9 -65 23
-171 32 -235 8 -65 19 -154 25 -198 23 -190 48 -247 155 -344 105 -97 261
-153 459 -166 112 -7 279 6 370 30 147 38 300 146 359 254 32 59 33 66 86 476
5 39 16 124 25 190 9 66 20 156 26 200 5 44 12 91 15 105 12 56 -15 0 -49
-100 -20 -58 -64 -184 -97 -280 -34 -96 -64 -183 -67 -192 -5 -17 -41 -18
-583 -18 l-578 0 -57 163 c-31 89 -74 214 -96 277 -22 63 -46 129 -54 145
l-15 30 5 -30z m64 -207 c5 -18 37 -113 70 -211 l61 -179 -2 -196 -3 -197 -27
55 c-19 41 -30 89 -43 185 -18 148 -29 226 -49 375 -25 183 -27 200 -22 200 3
0 9 -15 15 -32z m174 -405 c-7 -2 -19 -2 -25 0 -7 3 -2 5 12 5 14 0 19 -2 13
-5z"/>
</g>
</svg>
