<?xml version="1.0" standalone="no"?>
<!DOCTYPE svg PUBLIC "-//W3C//DTD SVG 20010904//EN"
 "http://www.w3.org/TR/2001/REC-SVG-20010904/DTD/svg10.dtd">
<svg version="1.0" xmlns="http://www.w3.org/2000/svg"
 width="70.000000pt" height="70.000000pt" viewBox="0 0 70.000000 70.000000"
 preserveAspectRatio="xMidYMid meet">
<metadata>
Created by potrace 1.11, written by Peter Selinger 2001-2013
</metadata>
<g transform="translate(0.000000,70.000000) scale(0.100000,-0.100000)"
fill="#000000" stroke="none">
<path d="M270 680 c0 -5 8 -13 17 -18 9 -6 18 -17 19 -25 2 -13 -3 -14 -22 -7
-13 5 -24 7 -24 5 0 -2 -12 0 -26 6 -25 9 -26 8 -13 -7 13 -16 12 -17 -8 -12
-24 6 -32 -7 -10 -15 6 -3 0 -6 -15 -6 -36 -1 -59 -11 -52 -22 3 -5 10 -7 15
-4 5 4 9 1 9 -4 0 -6 -5 -11 -11 -11 -6 0 -9 -7 -5 -15 3 -8 -2 -19 -12 -24
-15 -9 -14 -10 6 -11 26 0 29 -15 6 -28 -14 -8 -14 -13 -4 -32 11 -21 11 -23
-11 -17 -23 6 -23 5 -5 -8 11 -8 24 -15 30 -15 6 0 5 -5 -2 -12 -19 -19 -14
-94 8 -130 11 -18 20 -39 20 -46 0 -26 52 -122 80 -149 16 -15 46 -33 65 -40
34 -12 36 -11 76 29 23 23 47 59 54 79 8 20 25 54 38 76 14 21 28 53 32 72 7
33 8 34 21 16 8 -10 14 -13 14 -6 0 7 5 9 11 5 9 -5 10 6 5 42 -4 27 -9 63
-11 81 -4 38 -13 55 -26 47 -6 -3 -9 1 -7 9 3 16 -79 117 -96 117 -5 0 -26 15
-45 33 -19 17 -29 24 -22 14 12 -15 12 -17 -3 -11 -9 3 -16 10 -16 16 0 5 -4
7 -8 4 -5 -3 -23 4 -40 14 -18 11 -32 15 -32 10z"/>
</g>
</svg>
